<svg id="Capa_1" enable-background="new 0 0 512 512" height="512" viewBox="0 0 512 512" width="512" xmlns="http://www.w3.org/2000/svg"><g><path d="m251.655 336.157c-59.791 16.813-31.502 90.854 28.887 89.992h131.471l22.411-22.756c0-27.054 0-67.284 0-67.284-1.657.087 3.887.047-182.769.048z" fill="#eae8fb"/><path d="m144.808 336.162c-42.925 0-59.475 41.516-59.475 67.232l44.994 22.756h150.215c-12.871-27.746-22.693-57.979-28.887-89.992-30.277-.001-65.605.001-106.847.004z" fill="#dbd5f5"/><path d="m270.888 403.394c-60.676 0-43.332 67.232 34.269 67.232h129.268c0-6.325 0-50.967 0-67.232z" fill="#dbd5f5"/><path d="m85.333 403.394c0 25.703 23.273 67.232 59.475 67.232h160.348c-13.42-20.544-24.953-43.089-34.269-67.232z" fill="#d4c7fb"/><path d="m434.424 449.939h-141.77c-58.278 14.654-21.139 62.061 44.528 62.061h97.242c17.139 0 31.03-13.891 31.03-31.03.001-17.129-13.901-31.031-31.03-31.031z" fill="#5c547e"/><path d="m292.655 449.939h-137.504c-25.703 0-46.545-20.842-46.545-46.546 0-25.694 20.829-46.545 46.545-46.545l27.786-20.689v-321.161l-27.786-14.998h-1.81c-58.978 0-106.796 47.818-106.796 106.796v327.37c0 42.987 34.847 77.834 77.834 77.834h212.802c-16.791-18.297-31.755-39.15-44.526-62.061z" fill="#453b5e"/><path d="m465.455 32.84c0-18.142-14.698-32.84-32.841-32.84h-68.008c-186.699 0-226.095 327.054-108.392 356.849h176.4c18.153 0 32.841-14.713 32.841-32.84 0-21.448 0-291.041 0-291.169z" fill="#5fd8fb"/><path d="m245.77 294.788c-5.409-59.262 1.674-121.537 22.289-178.72 14.618-73.889 8.868-109.311-12.059-116.068h-100.849v356.849h101.062c-4.956-19.961-8.486-40.708-10.428-62.061z" fill="#02c6f9"/><path d="m391.758 170.667h-139.034c-35.511 15.515-43.269 124.121-5.232 139.636h144.266c10.711 0 19.394-8.683 19.394-19.394v-100.848c0-10.711-8.683-19.394-19.394-19.394z" fill="#eae8fb"/><path d="m252.724 170.667h-23.875c-10.711 0-19.394 8.683-19.394 19.394v100.848c0 10.711 8.683 19.394 19.394 19.394h18.643c-6.183-48.071-3.874-95.53 5.232-139.636z" fill="#dbd5f5"/><g fill="#262634"><path d="m252.121 250.163c-4.284 0-7.758-3.473-7.758-7.757v-12.412c0-4.284 3.473-7.758 7.758-7.758 4.284 0 7.758 3.473 7.758 7.758v12.412c0 4.283-3.473 7.757-7.758 7.757z"/><path d="m368.485 250.163c-4.284 0-7.758-3.473-7.758-7.757v-12.412c0-4.284 3.473-7.758 7.758-7.758 4.284 0 7.757 3.473 7.757 7.758v12.412c0 4.283-3.473 7.757-7.757 7.757z"/><path d="m310.136 257.552c-8.769 0-17.107-3.798-22.878-10.419-2.815-3.23-2.478-8.13.751-10.945 3.23-2.814 8.13-2.478 10.945.752 2.823 3.239 6.898 5.097 11.181 5.097 4.282 0 8.358-1.858 11.182-5.098 2.815-3.231 7.715-3.567 10.945-.751 3.23 2.815 3.566 7.715.751 10.945-5.77 6.621-14.109 10.419-22.877 10.419z"/></g><path d="m337.182 0c-50.152 7.758-88.939 62.061-69.116 116.071 4.377 1.175 9.287.556 13.542-2.483l24.187-17.276c2.697-1.927 6.321-1.927 9.018 0l24.187 17.276c10.719 7.656 25.607-.006 25.607-13.178v-100.41z" fill="#f5e94a"/><path d="m256 0v100.41c0 7.944 5.417 13.876 12.066 15.661 15.372-42.641 38.263-82.453 69.116-116.071z" fill="#fdcd54"/></g></svg>