<svg id="Capa_1" enable-background="new 0 0 512 512" height="512" viewBox="0 0 512 512" width="512" xmlns="http://www.w3.org/2000/svg"><g><g><path d="m239.533 100.848h-22.404c-37.754 0-42.153 10.84-42.153 24.224v171.784h88.781l17.963-98.004-17.963-73.78c.001-13.384-10.839-24.224-24.224-24.224z" fill="#5fd8fb"/><path d="m217.129 100.848h-37.754c-13.384 0-24.224 10.84-24.224 24.224l-17.48 73.78 17.48 98.004h37.754c0-21.546 0-147.024 0-171.784 0-13.384 10.84-24.224 24.224-24.224z" fill="#02c6f9"/><path d="m449.939 108.606-11.636-12.929h-43.701c-26.663 0-26.663 71.628 0 71.628h44.477l10.861-12.154c-.001-10.431-.001-36.847-.001-46.545z" fill="#eae8fb"/><path d="m330.556 0h-2.924c-45.911 0-45.911 11.771-45.911 26.293v270.564h75.128l18.877-129.551-18.877-102.225c0-14.024 0-27.143 0-38.788 0-14.522-11.771-26.293-26.293-26.293z" fill="#77d67c"/><path d="m356.849 108.606v46.545c0 20.687 37.753 20.687 37.753 0 0-16.776 0-32.792 0-46.545 0-17.239-37.753-17.239-37.753 0z" fill="#dbd5f5"/><path d="m374.605 155.151v141.705h75.335v-141.705z" fill="#f5e94a"/><path d="m356.849 155.151v141.705h37.753c0-1.413 0-77.178 0-141.705z" fill="#fdcd54"/><path d="m449.939 65.081c0-14.522-11.771-26.293-26.293-26.293h-2.751c-42.739 0-43.704 11.771-43.704 26.293v35.768l17.411 7.758h55.337z" fill="#f5e94a"/><path d="m420.895 38.788h-37.753c-14.522 0-26.293 11.771-26.293 26.293v43.525h37.753c0-24.998 0-42.518 0-43.525 0-14.522 11.771-26.293 26.293-26.293z" fill="#fdcd54"/><path d="m155.152 108.606-11.636-12.929h-43.702c-26.663 0-26.663 71.628 0 71.628h44.477l10.861-12.154c0-10.431 0-36.847 0-46.545z" fill="#eae8fb"/><path d="m62.061 108.606v46.545c0 20.687 37.754 20.687 37.754 0 0-16.776 0-32.792 0-46.545-.001-17.239-37.754-17.239-37.754 0z" fill="#dbd5f5"/><path d="m79.817 155.151v141.705h75.335v-141.705z" fill="#fdacba"/><path d="m62.061 155.151v141.705h37.754c0-1.413 0-77.178 0-141.705z" fill="#fb89a5"/><path d="m155.152 65.081c0-14.522-11.771-26.293-26.293-26.293h-2.751c-42.739 0-43.704 11.771-43.704 26.293v35.768l17.411 7.758h55.337z" fill="#fdacba"/><path d="m126.107 38.788h-37.753c-14.522 0-26.293 11.771-26.293 26.293v43.525h37.754c0-24.998 0-42.518 0-43.525-.001-14.522 11.77-26.293 26.292-26.293z" fill="#fb89a5"/><path d="m327.632 0h-37.581c-14.522 0-26.293 11.771-26.293 26.293v270.564h37.581c0-7.456 0-262.46 0-270.564 0-14.522 11.77-26.293 26.293-26.293z" fill="#3fc751"/><path d="m356.525 445.988c8.473 6.881 18.577 9.723 24.979 10.895 3.681.673 6.374 3.848 6.374 7.589v12.619c0 19.524 16.014 35.303 35.642 34.902 19.098-.391 34.176-16.439 34.176-35.54v-41.511c0-31.72-110.614-31.72-110.614 0 2.594 4.515 5.87 8.144 9.443 11.046z" fill="#f26d4a"/><path d="m341.333 392.016v19.135.176c0 9.798 2.249 17.518 5.75 23.614h110.614v-42.925z" fill="#e14d3f"/><path d="m54.303 476.452c0 19.102 15.078 35.149 34.176 35.54 19.628.402 35.642-15.377 35.642-34.902v-12.619c0-3.742 2.693-6.916 6.374-7.589 6.402-1.171 16.507-4.014 24.979-10.895 3.573-2.902 6.85-6.531 9.442-11.046 0-40.914-110.614-40.914-110.614 0v41.511z" fill="#f26d4a"/><path d="m170.667 411.151v-19.135h-116.364v42.925h110.614c3.5-6.096 5.75-13.816 5.75-23.614z" fill="#e14d3f"/><path d="m512 358.576v-34.485c0-29.034-23.542-52.576-52.576-52.576-33.747 0-221.376 0-331.341 0-76.883 0-94.467 23.542-94.467 52.576v34.485c0 29.034 4.137 52.576 94.467 52.576h331.341c29.034-.001 52.576-23.542 52.576-52.576z" fill="#fb875e"/><path d="m75.507 358.576v-34.485c0-29.034 23.542-52.576 52.576-52.576-36.661 0-64.69 0-75.507 0-29.034 0-52.576 23.542-52.576 52.576v34.485c0 29.034 23.542 52.576 52.576 52.576h75.507c-29.034-.001-52.576-23.542-52.576-52.576z" fill="#f26d4a"/><path d="m340.62 324.443c.6-.031 1.21-.041 1.82-.041 17.604 0 31.889 11.367 31.889 25.393s-14.284 25.393-31.889 25.393c-17.615 0-31.899-11.367-31.899-25.393 0-13.54 13.312-24.608 30.079-25.352z" fill="#fff"/><path d="m232.727 170.667c0-9.294-5.444-17.309-13.317-21.04-19.913 0-23.919 11.746-23.919 21.04s4.137 21.04 23.919 21.04c7.873-3.731 13.317-11.747 13.317-21.04z" fill="#eae8fb"/><path d="m206.093 170.667c0-9.294 5.444-17.309 13.317-21.04-3.018-1.43-6.392-2.233-9.956-2.233-12.857 0-23.273 10.416-23.273 23.273s10.416 23.273 23.273 23.273c3.563 0 6.937-.803 9.956-2.233-7.873-3.731-13.317-11.747-13.317-21.04z" fill="#dbd5f5"/><path d="m169.56 324.401c17.615 0 31.899 11.367 31.899 25.393s-14.284 25.393-31.899 25.393c-17.605 0-31.889-11.367-31.889-25.393 0-14.025 14.284-25.393 31.889-25.393z" fill="#fff"/><g fill="#262634"><path d="m188.147 332.79c-4.284 0-7.758-3.473-7.758-7.758v-12.412c0-4.285 3.473-7.758 7.758-7.758 4.284 0 7.758 3.473 7.758 7.758v12.412c0 4.285-3.474 7.758-7.758 7.758z"/><path d="m256 340.868c-9.095 0-17.745-3.94-23.732-10.812-2.815-3.23-2.478-8.13.752-10.945 3.23-2.814 8.13-2.479 10.945.753 3.04 3.488 7.427 5.489 12.035 5.489 4.609 0 8.996-2.001 12.035-5.489 2.814-3.232 7.714-3.568 10.945-.753 3.23 2.814 3.567 7.714.752 10.945-5.986 6.871-14.637 10.812-23.732 10.812z"/><path d="m340.63 332.448c-4.02 0-7.698-3.11-7.767-7.883-.057-3.587-3.027-6.505-6.621-6.505-3.65 0-6.62 2.975-6.62 6.63 0 4.285-3.473 7.758-7.758 7.758-4.284 0-7.758-3.473-7.758-7.758 0-12.211 9.93-22.145 22.135-22.145 12.197 0 22.145 10.03 22.145 22.145.001 4.286-3.472 7.758-7.756 7.758z"/></g><path d="m325.818 240.485c4.284 0 7.758-3.473 7.758-7.758 0-4.284-3.473-7.758-7.758-7.758h-24.479c-9.539 0-9.539 15.515 0 15.515h24.479z" fill="#eae8fb"/><path d="m287.03 232.727c0 4.284 3.473 7.758 7.758 7.758h6.551c0-4.969 0-10.158 0-15.515h-6.551c-4.284 0-7.758 3.473-7.758 7.757z" fill="#dbd5f5"/><path d="m325.818 209.454c4.284 0 7.758-3.473 7.758-7.758 0-4.284-3.473-7.758-7.758-7.758h-24.479c-9.539 0-9.539 15.515 0 15.515h24.479z" fill="#eae8fb"/><path d="m287.03 201.697c0 4.284 3.473 7.758 7.758 7.758h6.551c0-5.08 0-10.263 0-15.515h-6.551c-4.284-.001-7.758 3.473-7.758 7.757z" fill="#dbd5f5"/><path d="m325.818 178.424c4.284 0 7.758-3.473 7.758-7.758 0-4.284-3.473-7.758-7.758-7.758h-24.479c-9.539 0-9.539 15.515 0 15.515h24.479z" fill="#eae8fb"/><path d="m287.03 170.667c0 4.284 3.473 7.758 7.758 7.758h6.551c0-5.149 0-10.33 0-15.515h-6.551c-4.284-.001-7.758 3.472-7.758 7.757z" fill="#dbd5f5"/></g></g></svg>