<svg id="Capa_1" enable-background="new 0 0 512 512" height="512" viewBox="0 0 512 512" width="512" xmlns="http://www.w3.org/2000/svg"><g><g><path d="m512 413.996v-277.204c0-29.82-20.687-54.81-48.5-61.399l-207.5 26.231-125.299-15.84c-122.943 48.422-80.351 391.307 113.454 391.307h204.75c34.847 0 63.095-28.248 63.095-63.095z" fill="#77d67c"/><path d="m130.701 85.785-82.201-10.392c-27.813 6.589-48.5 31.579-48.5 61.399v277.204c0 34.847 28.248 63.095 63.095 63.095h181.06c-116.911-86.587-164.429-253.827-113.454-391.306z" fill="#3fc751"/><path d="m465.454 89.988v262.206c0 30.42-24.659 55.079-55.079 55.079h-154.375l-25.558-9.051v-308.53l25.558.296c0-30.42 24.659-55.079 55.079-55.079h99.297c30.345 0 55.078 24.584 55.078 55.079z" fill="#eae8fb"/><g fill="#5fd8fb"><path d="m411.151 151.273c8.564 0 15.515 6.951 15.515 15.515 0 8.55-6.951 15.515-15.515 15.515h-100.848c-8.564 0-15.515-6.951-15.515-15.515 0-8.55 6.951-15.515 15.515-15.515z"/><path d="m411.151 221.091c8.564 0 15.515 6.951 15.515 15.515 0 8.55-6.951 15.515-15.515 15.515h-100.848c-8.564 0-15.515-6.951-15.515-15.515 0-8.55 6.951-15.515 15.515-15.515z"/><path d="m411.151 290.909c8.564 0 15.515 6.951 15.515 15.515 0 8.55-6.951 15.515-15.515 15.515h-100.848c-8.564 0-15.515-6.951-15.515-15.515 0-8.55 6.951-15.515 15.515-15.515z"/></g><path d="m256 289.327-62.061-254.418h-38.793c-104.463 27.41-115.841 311.855 20.708 372.364h80.146z" fill="#dbd5f5"/><path d="m155.147 34.909h-53.523c-30.287 0-55.079 24.521-55.079 55.079v262.206c0 30.42 24.659 55.079 55.079 55.079h74.229c-77.246-107.778-88.64-259.862-20.706-372.364z" fill="#d4c7fb"/><path d="m211.523 221.091h-100.571c-15.365 11.363-10.734 21.471 3.131 31.03h97.441v-31.03z" fill="#02c6f9"/><path d="m211.523 151.273h-97.513c-17.949 10.192-19.22 20.548-3.113 31.03h100.626z" fill="#02c6f9"/><path d="m256 89.988v199.339c0 9.226-11.967 12.847-17.087 5.172l-8.652-12.978c-2.517-3.776-8.065-3.776-10.582 0l-8.652 12.978c-5.12 7.675-17.087 4.055-17.087-5.172 0-9.991 0-244.431 0-254.417h6.982c30.418-.001 55.078 24.659 55.078 55.078z" fill="#fb89a5"/><path d="m100.849 221.091c-8.565 0-15.515 6.965-15.515 15.515 0 8.564 6.951 15.515 15.515 15.515h13.234c-1.509-10.402-2.548-20.754-3.131-31.03z" fill="#19aaf9"/><path d="m100.849 151.273c-8.565 0-15.515 6.965-15.515 15.515 0 8.564 6.951 15.515 15.515 15.515h10.049c.573-10.482 1.61-20.838 3.113-31.03z" fill="#19aaf9"/><path d="m155.152 306.424c0-8.564-6.951-15.515-15.515-15.515h-17.755c-19.702 14.196-13.14 24.004 9.507 31.03h8.248c8.564 0 15.515-6.965 15.515-15.515z" fill="#02c6f9"/><path d="m100.849 290.909c-8.565 0-15.515 6.965-15.515 15.515 0 8.564 6.951 15.515 15.515 15.515h30.54c-3.593-10.081-6.772-20.431-9.507-31.03z" fill="#19aaf9"/><path d="m302.546 109.382c-4.284 0-7.758-3.473-7.758-7.758v-12.412c0-4.284 3.473-7.758 7.758-7.758 4.284 0 7.758 3.473 7.758 7.758v12.412c-.001 4.285-3.474 7.758-7.758 7.758z" fill="#262634"/><path d="m418.909 109.382c-4.284 0-7.758-3.473-7.758-7.758v-12.412c0-4.284 3.473-7.758 7.758-7.758 4.284 0 7.758 3.473 7.758 7.758v12.412c0 4.285-3.474 7.758-7.758 7.758z" fill="#262634"/><path d="m337.848 106.342c-2.811-3.233-2.469-8.133.764-10.944s8.132-2.47 10.944.764c5.903 6.789 16.447 6.78 22.342 0 2.811-3.233 7.712-3.574 10.944-.764 3.233 2.812 3.575 7.711.764 10.944-12.087 13.901-33.684 13.886-45.758 0z" fill="#262634"/></g></g></svg>