<svg id="Capa_1" enable-background="new 0 0 512 512" height="512" viewBox="0 0 512 512" width="512" xmlns="http://www.w3.org/2000/svg"><g><g><path d="m512 448.905v-277.204c0-29.82-20.687-54.81-48.5-61.399h-324.537c-120.517 58.893-110.174 361.876 67.629 401.698h242.313c34.847 0 63.095-28.248 63.095-63.095z" fill="#f5e94a"/><path d="m138.963 110.302h-90.463c-27.813 6.589-48.5 31.579-48.5 61.399v277.204c0 34.847 28.248 63.095 63.095 63.095h143.497c-85.601-104.879-113.678-272.684-67.629-401.698z" fill="#fdcd54"/><path d="m277.721 419.081v-328.921l-21.721-20.342h-99.37c-110.085 28.617-123.703 316.854 5.548 372.364h93.822z" fill="#eae8fb"/><path d="m156.63 69.818h-55.006c-30.287 0-55.079 24.521-55.079 55.079v262.206c0 30.42 24.659 55.079 55.079 55.079h60.554c-55.305-112.562-63.016-263.006-5.548-372.364z" fill="#dbd5f5"/><path d="m411.669 69.851-62.578 26.86-62.578-26.893c-17.96 0-30.481 0-30.513 0v372.364h154.376c30.42 0 55.079-24.659 55.079-55.079v-262.206c-.001-30.059-24.037-54.357-53.786-55.046z" fill="#dbd5f5"/><path d="m305.994 275.382 28.875 40.425c6.97 9.758 21.473 9.758 28.443 0l28.88-40.432c12.862-18.02 19.476-39.356 19.476-60.79v-144.734c-2.026-.047 10.515-.033-125.156-.033v144.767c.001 21.676 6.752 42.961 19.482 60.797z" fill="#d4c7fb"/><path d="m411.151 349.091c8.564 0 15.515 6.951 15.515 15.515 0 8.55-6.951 15.515-15.515 15.515h-100.848c-8.564 0-15.515-6.951-15.515-15.515 0-8.55 6.951-15.515 15.515-15.515z" fill="#02c6f9"/><path d="m387.879 85.333c0 29.881-77.576 29.881-77.576 0v-31.03c0-28.502 77.576-28.502 77.576 0z" fill="#fdacba"/><path d="m349.091 85.333 6.551 5.517v147.494c-9.309 23.173-26.954 15.71-41.76 0-2.358-7.654-3.579-15.66-3.579-23.759v-129.252z" fill="#f5e94a"/><path d="m387.879 85.333v129.252c0 8.099-1.221 16.105-3.579 23.759-13.647 17.437-25.411 17.694-35.209 0v-153.011z" fill="#fdcd54"/><path d="m387.879 38.788v15.515h-77.576v-15.515c0-21.421 17.367-38.788 38.788-38.788 21.419 0 38.788 17.356 38.788 38.788z" fill="#fb89a5"/><path d="m384.3 238.344c-2.534 8.254-6.392 16.094-11.471 23.211l-17.868 25.015c-2.877 4.028-8.864 4.028-11.741 0l-17.868-25.015c-5.079-7.116-8.937-14.957-11.471-23.211l35.209-21.132z" fill="#fb875e"/><path d="m217.212 294.788c0-8.564-6.951-15.515-15.515-15.515h-83.306c-15.312 10.262-14.264 20.615 3.498 31.03h79.808c8.55 0 15.515-6.95 15.515-15.515z" fill="#5fd8fb"/><path d="m100.848 279.273c-8.55 0-15.515 6.951-15.515 15.515s6.951 15.515 15.515 15.515h21.041c-1.522-10.418-2.691-20.77-3.498-31.03z" fill="#02c6f9"/><path d="m217.212 364.606c0-8.564-6.951-15.515-15.515-15.515h-72.47c-22.028 12.135-15.551 22.251 8.398 31.03h64.073c8.549 0 15.514-6.95 15.514-15.515z" fill="#5fd8fb"/><path d="m100.848 349.091c-8.55 0-15.515 6.951-15.515 15.515s6.951 15.515 15.515 15.515h36.776c-3.127-10.112-5.933-20.463-8.398-31.03z" fill="#02c6f9"/><path d="m170.667 224.97c0-8.564-6.951-15.515-15.515-15.515h-36.852c-21.112 9.619-18.605 20.054-1.313 31.03h38.165c8.55 0 15.515-6.951 15.515-15.515z" fill="#5fd8fb"/><path d="m118.3 209.454h-17.452c-8.55 0-15.515 6.951-15.515 15.515s6.951 15.515 15.515 15.515h16.138c.073-10.488.516-20.841 1.314-31.03z" fill="#02c6f9"/></g></g></svg>