<svg id="Capa_1" enable-background="new 0 0 512 512" height="512" viewBox="0 0 512 512" width="512" xmlns="http://www.w3.org/2000/svg"><g><g><path d="m350.815 201.697-149.118 24.307-77.93-24.307c-107.39 35.168-84.634 272.894 76.798 294.788h151.629c28.279 0 51.2-22.921 51.2-51.2v-173.47z" fill="#fb875e"/><path d="m123.767 201.697c-38.575 0-67.834 0-72.567 0-28.279 0-51.2 22.921-51.2 51.2v192.388c0 28.279 22.921 51.2 51.2 51.2h149.365c-78.972-68.006-109.799-192.289-76.798-294.788z" fill="#f26d4a"/><path d="m352.194 201.697c-4.916 0-36.771 0-78.069 0 24.498 42.439 70.446 70.335 121.512 70.335 2.603 0 5.189-.077 7.757-.218v-18.917c0-28.279-22.921-51.2-51.2-51.2z" fill="#f26d4a"/><path d="m201.697 218.422c0-33.025-25.314-60.13-57.592-63.004-86.86 18.451-95.319 235.736 8.118 283.403l49.474 11.118c38.596 0 38.596-231.517 0-231.517z" fill="#eae8fb"/><path d="m257.49 155.607c-31.414 3.702-55.793 30.408-55.793 62.816v231.517l138.085-31.03 9.309-15.515c0-5.435 0-79.417 0-139.369-2.817-63.924-33.195-100.22-91.601-108.419z" fill="#dbd5f5"/><path d="m316.944 155.152h-51.976c-2.532 0-5.024.166-7.478.455.247 1.423.513 2.847.805 4.272 9.961 49.128 45.404 88.065 90.796 104.146 0-39.961 0-73.69 0-76.726 0-17.749-14.398-32.147-32.147-32.147z" fill="#d4c7fb"/><path d="m512 131.879c0-53.238-35.756-98.127-84.563-111.964-155.593.043-155.531 223.949.062 223.906 48.711-13.847 84.501-58.646 84.501-111.942z" fill="#5c547e"/><path d="m427.437 19.915c-10.108-2.866-20.775-4.4-31.801-4.4-73.9 0-128.723 67.929-114.026 139.636 10.755 53.046 57.671 93.091 114.026 93.091 11.043 0 21.732-1.542 31.863-4.421-112.322-31.854-112.441-192.084-.062-223.906z" fill="#453b5e"/><path d="m400.493 232.598c52.059-2.475 91.868-43.816 95.69-92.961l-6.422-7.758 6.422-7.757c-3.822-49.136-43.622-90.548-95.803-92.967-105.697.058-105.585 201.502.113 201.443z" fill="#eae8fb"/><path d="m400.381 31.154c-1.579-.073-3.159-.124-4.745-.124-11.453 0-22.63 1.919-33.143 5.57-17.4 6.042-32.979 16.827-44.967 31.521-19.259 23.606-26.81 54.191-20.712 83.947 7.172 35.373 32.729 63.39 65.445 74.931 10.511 3.708 21.756 5.728 33.375 5.728 1.623 0 3.241-.053 4.857-.13-76.292-43.213-76.384-158.225-.11-201.443z" fill="#dbd5f5"/><path d="m302.546 263.758c8.564 0 15.515 6.951 15.515 15.515 0 8.55-6.951 15.515-15.515 15.515h-54.303c-8.564 0-15.515-6.951-15.515-15.515 0-8.55 6.951-15.515 15.515-15.515z" fill="#02c6f9"/><path d="m302.546 333.576c8.564 0 15.515 6.951 15.515 15.515 0 8.55-6.951 15.515-15.515 15.515h-54.303c-8.564 0-15.515-6.951-15.515-15.515 0-8.55 6.951-15.515 15.515-15.515z" fill="#02c6f9"/><path d="m144.105 155.418c-1.872-.167-3.763-.267-5.679-.267h-51.976c-17.749 0-32.147 14.398-32.147 32.147v216.095l9.309 15.515 88.611 19.913c-50.689-83.401-56.843-198.493-8.118-283.403z" fill="#dbd5f5"/><path d="m170.667 349.091c0-8.564-6.951-15.515-15.515-15.515h-40.812c-18.27 12.037-13.239 22.19 6.504 31.03h34.308c8.564 0 15.515-6.965 15.515-15.515z" fill="#5fd8fb"/><path d="m100.849 333.576c-8.565 0-15.515 6.965-15.515 15.515 0 8.564 6.951 15.515 15.515 15.515h19.995c-2.674-10.068-4.85-20.426-6.504-31.03z" fill="#02c6f9"/><path d="m170.667 279.273c0-8.564-6.951-15.515-15.515-15.515h-43.542c-19.25 8.266-19.523 18.627-.807 31.03h44.348c8.565 0 15.516-6.965 15.516-15.515z" fill="#5fd8fb"/><path d="m111.61 263.758h-10.762c-8.565 0-15.515 6.965-15.515 15.515 0 8.564 6.951 15.515 15.515 15.515h9.955c-.277-10.5-.004-20.861.807-31.03z" fill="#02c6f9"/><path d="m349.091 403.394v14.398c0 17.749-14.398 32.147-32.147 32.147h-115.247c0-25.703 20.842-46.546 46.545-46.546h100.849z" fill="#d4c7fb"/><path d="m155.152 403.394h-21.04c-17.748 16.377-6.112 44.304 25.267 46.546h42.319c-.001-25.704-20.843-46.546-46.546-46.546z" fill="#dbd5f5"/><path d="m54.303 403.394v14.398c0 17.749 14.398 32.147 32.147 32.147h72.928c-9.683-14.25-18.188-29.838-25.267-46.546h-79.808z" fill="#d4c7fb"/><path d="m440.392 139.636h-30.989c-4.284 0-7.758-3.473-7.758-7.758 0-4.284 3.473-7.758 7.758-7.758h30.989c4.284 0 7.758 3.473 7.758 7.758s-3.473 7.758-7.758 7.758z" fill="#fa7190"/><path d="m395.636 125.869c-4.284 0-7.758-3.473-7.758-7.758v-39.935c0-4.284 3.473-7.758 7.758-7.758 4.284 0 7.757 3.473 7.757 7.758v39.936c.001 4.284-3.472 7.757-7.757 7.757z" fill="#fb89a5"/><path d="m395.636 50.124c4.284 0 7.757-3.473 7.757-7.757v-11.042c-2.559-.194-5.145-.294-7.757-.294-2.614 0-5.199 2.78-7.758 2.974v8.363c.001 4.283 3.474 7.756 7.758 7.756z" fill="#dbd5f5"/><path d="m313.882 131.879c0-4.284-3.473-7.758-7.758-7.758h-11.096c-.387 5.094-.387 10.277.03 15.515h11.066c4.285 0 7.758-3.473 7.758-7.757z" fill="#d4c7fb"/><path d="m395.636 213.633c-4.284 0-7.758 3.473-7.758 7.758v8.427c4.151.322 8.359 2.982 12.614 2.779.972-.046 1.938-.11 2.901-.183v-11.024c.001-4.283-3.472-7.757-7.757-7.757z" fill="#dbd5f5"/><path d="m496.186 124.121h-11.037c-4.284 0-7.758 3.473-7.758 7.758 0 4.284 3.473 7.758 7.758 7.758h11.031c.2-2.566.305-5.153.305-7.758 0-2.608-.102-5.195-.299-7.758z" fill="#dbd5f5"/><ellipse cx="395.636" cy="131.879" fill="#fdacba" rx="17.905" ry="17.904" transform="matrix(.16 -.987 .987 .16 202.087 501.282)"/></g></g></svg>